<svg xmlns="http://www.w3.org/2000/svg" xmlns:xlink="http://www.w3.org/1999/xlink" width="373" height="105" viewBox="0 0 373 105">
    <defs>
        <path id="prefix__a" d="M56.28.023l5.652.645 23.711 2.706c-4.402 19.136-25.658 26.262-42.808 26.34C25.685 29.637 4.43 22.51.027 3.375L23.74.668 29.39.023c1.523 6.04 7.953 8.193 13.444 8.273"/>
        <path id="prefix__b" d="M15.948.002s-1.093-.022-3.03 1.196C10.98 2.416 3.354 2.186 1.67 2.963c-1.684.776-2.868 7.127.512 11.26 2.208 2.7 7.404 4.966 10.743 6.214 1.953.73 4.092.73 6.046 0 3.338-1.248 8.534-3.515 10.742-6.214 3.38-4.133 2.197-10.484.512-11.26-1.685-.777-9.31-.547-11.247-1.765C17.109.023 16.026.002 15.952.002h-.004"/>
        <path id="prefix__d" d="M15.948.002s-1.093-.022-3.03 1.196C10.98 2.416 3.354 2.186 1.67 2.963c-1.684.776-2.868 7.127.512 11.26 2.208 2.7 7.404 4.966 10.743 6.214 1.953.73 4.092.73 6.046 0 3.338-1.248 8.534-3.515 10.742-6.214 3.38-4.133 2.197-10.484.512-11.26-1.685-.777-9.31-.547-11.247-1.765C17.109.023 16.026.002 15.952.002h-.004"/>
        <path id="prefix__f" d="M15.948.002s-1.093-.022-3.03 1.196C10.98 2.416 3.354 2.186 1.67 2.963c-1.684.776-2.868 7.127.512 11.26 2.208 2.7 7.404 4.966 10.743 6.214 1.953.73 4.092.73 6.046 0 3.338-1.248 8.534-3.515 10.742-6.214 3.38-4.133 2.197-10.484.512-11.26-1.685-.777-9.31-.547-11.247-1.765C17.109.023 16.026.002 15.952.002h-.004"/>
        <path id="prefix__h" d="M15.948.002s-1.093-.022-3.03 1.196C10.98 2.416 3.354 2.186 1.67 2.963c-1.684.776-2.868 7.127.512 11.26 2.208 2.7 7.404 4.966 10.743 6.214 1.953.73 4.092.73 6.046 0 3.338-1.248 8.534-3.515 10.742-6.214 3.38-4.133 2.197-10.484.512-11.26-1.685-.777-9.31-.547-11.247-1.765C17.109.023 16.026.002 15.952.002h-.004"/>
        <path id="prefix__j" d="M15.948.002s-1.093-.022-3.03 1.196C10.98 2.416 3.354 2.186 1.67 2.963c-1.684.776-2.868 7.127.512 11.26 2.208 2.7 7.404 4.966 10.743 6.214 1.953.73 4.092.73 6.046 0 3.338-1.248 8.534-3.515 10.742-6.214 3.38-4.133 2.197-10.484.512-11.26-1.685-.777-9.31-.547-11.247-1.765C17.109.023 16.026.002 15.952.002h-.004"/>
        <path id="prefix__l" d="M15.948.002s-1.093-.022-3.03 1.196C10.98 2.416 3.354 2.186 1.67 2.963c-1.684.776-2.868 7.127.512 11.26 2.208 2.7 7.404 4.966 10.743 6.214 1.953.73 4.092.73 6.046 0 3.338-1.248 8.534-3.515 10.742-6.214 3.38-4.133 2.197-10.484.512-11.26-1.685-.777-9.31-.547-11.247-1.765C17.109.023 16.026.002 15.952.002h-.004"/>
    </defs>
    <g fill="none" fill-rule="evenodd">
        <path fill="#FF7764" fill-rule="nonzero" stroke="#FF7764" stroke-width="3" d="M142 79.44c2.56 0 4.92-.28 7.08-.84 2.16-.56 4.133-1.32 5.92-2.28 1.787-.96 3.36-2.08 4.72-3.36 1.36-1.28 2.52-2.64 3.48-4.08h0L158.72 66c-1.973 2.933-4.427 5.067-7.36 6.4-2.933 1.333-6.027 2-9.28 2-3.627 0-6.893-.667-9.8-2-2.907-1.333-5.373-3.133-7.4-5.4-2.027-2.267-3.587-4.893-4.68-7.88-1.093-2.987-1.64-6.133-1.64-9.44 0-3.307.533-6.453 1.6-9.44 1.067-2.987 2.613-5.613 4.64-7.88 2.027-2.267 4.493-4.067 7.4-5.4 2.907-1.333 6.2-2 9.88-2 1.813 0 3.507.213 5.08.64 1.573.427 3.027.987 4.36 1.68 1.333.693 2.493 1.493 3.48 2.4.987.907 1.773 1.813 2.36 2.72h0l4.8-3.52c-.96-1.387-2.16-2.627-3.6-3.72-1.44-1.093-3.04-2.027-4.8-2.8-1.76-.773-3.64-1.373-5.64-1.8-2-.427-4.04-.64-6.12-.64-4.213 0-8.12.747-11.72 2.24-3.6 1.493-6.72 3.56-9.36 6.2-2.64 2.64-4.707 5.773-6.2 9.4-1.493 3.627-2.24 7.6-2.24 11.92s.733 8.293 2.2 11.92c1.467 3.627 3.507 6.76 6.12 9.4 2.613 2.64 5.733 4.707 9.36 6.2 3.627 1.493 7.573 2.24 11.84 2.24zM230.24 78V58.8c0-2.507.307-4.653.92-6.44.613-1.787 1.413-3.253 2.4-4.4.987-1.147 2.147-1.987 3.48-2.52 1.333-.533 2.72-.8 4.16-.8.747 0 1.493.053 2.24.16.747.107 1.28.213 1.6.32h0l.72-5.12c-.587-.16-1.16-.267-1.72-.32-.56-.053-1.187-.08-1.88-.08-2.667 0-5.067.68-7.2 2.04-2.133 1.36-3.733 3.133-4.8 5.32h0-.16c0-.8-.027-1.813-.08-3.04-.053-1.227-.133-2.347-.24-3.36h0-5.2c.107 1.28.187 2.72.24 4.32.053 1.6.08 2.907.08 3.92V78h5.44zm37.12.96c2.933 0 5.627-.493 8.08-1.48 2.453-.987 4.56-2.36 6.32-4.12 1.76-1.76 3.133-3.84 4.12-6.24.987-2.4 1.48-5.013 1.48-7.84s-.493-5.44-1.48-7.84c-.987-2.4-2.36-4.48-4.12-6.24-1.76-1.76-3.867-3.133-6.32-4.12-2.453-.987-5.147-1.48-8.08-1.48-2.88 0-5.547.493-8 1.48-2.453.987-4.56 2.36-6.32 4.12-1.76 1.76-3.133 3.84-4.12 6.24-.987 2.4-1.48 5.013-1.48 7.84s.493 5.44 1.48 7.84c.987 2.4 2.36 4.48 4.12 6.24 1.76 1.76 3.867 3.133 6.32 4.12 2.453.987 5.12 1.48 8 1.48zm0-4.64c-2.187 0-4.147-.387-5.88-1.16-1.733-.773-3.213-1.84-4.44-3.2-1.227-1.36-2.173-2.96-2.84-4.8-.667-1.84-1-3.8-1-5.88s.333-4.04 1-5.88c.667-1.84 1.613-3.44 2.84-4.8 1.227-1.36 2.707-2.44 4.44-3.24 1.733-.8 3.693-1.2 5.88-1.2s4.16.4 5.92 1.2c1.76.8 3.253 1.88 4.48 3.24 1.227 1.36 2.173 2.96 2.84 4.8.667 1.84 1 3.8 1 5.88s-.333 4.04-1 5.88c-.667 1.84-1.613 3.44-2.84 4.8-1.227 1.36-2.72 2.427-4.48 3.2-1.76.773-3.733 1.16-5.92 1.16zM302.48 78V58.8c0-2.507.32-4.68.96-6.52.64-1.84 1.493-3.36 2.56-4.56 1.067-1.2 2.28-2.093 3.64-2.68 1.36-.587 2.76-.88 4.2-.88 1.973 0 3.613.32 4.92.96 1.307.64 2.347 1.533 3.12 2.68.773 1.147 1.32 2.52 1.64 4.12.32 1.6.48 3.387.48 5.36h0V78h5.44V55.04c0-4.64-1.187-8.373-3.56-11.2s-5.933-4.24-10.68-4.24c-2.667 0-5.2.68-7.6 2.04-2.4 1.36-4.133 3.133-5.2 5.32h0-.16c0-.8-.027-1.813-.08-3.04-.053-1.227-.133-2.347-.24-3.36h0-5.2c.107 1.28.187 2.72.24 4.32.053 1.6.08 2.907.08 3.92V78h5.44zm49.2.96c3.04 0 5.64-.547 7.8-1.64s4.093-2.893 5.8-5.4h.16c0 1.013.053 2.053.16 3.12.107 1.067.24 2.053.4 2.96h4.88c-.213-1.067-.373-2.373-.48-3.92-.107-1.547-.16-3.04-.16-4.48h0V53.2c0-2.293-.373-4.293-1.12-6-.747-1.707-1.787-3.12-3.12-4.24-1.333-1.12-2.88-1.96-4.64-2.52-1.76-.56-3.653-.84-5.68-.84-3.2 0-6.067.507-8.6 1.52-2.533 1.013-4.573 2.293-6.12 3.84h0l3.04 3.6c1.333-1.333 2.96-2.4 4.88-3.2 1.92-.8 4-1.2 6.24-1.2 3.253 0 5.733.8 7.44 2.4 1.707 1.6 2.56 4.027 2.56 7.28h0v1.2c-3.413 0-6.707.12-9.88.36-3.173.24-5.987.773-8.44 1.6-2.453.827-4.413 2.08-5.88 3.76-1.467 1.68-2.2 3.96-2.2 6.84 0 2.08.413 3.84 1.24 5.28.827 1.44 1.867 2.613 3.12 3.52 1.253.907 2.64 1.56 4.16 1.96 1.52.4 3 .6 4.44.6zm1.44-4.48c-1.067 0-2.12-.12-3.16-.36s-1.987-.64-2.84-1.2c-.853-.56-1.533-1.293-2.04-2.2-.507-.907-.76-2.027-.76-3.36 0-1.76.587-3.173 1.76-4.24 1.173-1.067 2.68-1.88 4.52-2.44 1.84-.56 3.893-.933 6.16-1.12 2.267-.187 4.52-.28 6.76-.28h1.6v2.8c0 1.653-.267 3.227-.8 4.72-.533 1.493-1.307 2.813-2.32 3.96-1.013 1.147-2.267 2.053-3.76 2.72-1.493.667-3.2 1-5.12 1z"/>
        <path fill="#4E73DF" fill-rule="nonzero" stroke="#4E73DF" stroke-width="3" d="M34 79.44c3.84 0 7.547-.453 11.12-1.36 3.573-.907 6.907-2.293 10-4.16h0V48.4H36.16v5.04h13.2v17.2c-1.653 1.067-3.813 1.947-6.48 2.64-2.667.693-5.6 1.04-8.8 1.04-3.627 0-6.893-.667-9.8-2-2.907-1.333-5.373-3.12-7.4-5.36s-3.587-4.853-4.68-7.84c-1.093-2.987-1.64-6.133-1.64-9.44 0-3.307.547-6.453 1.64-9.44 1.093-2.987 2.653-5.613 4.68-7.88 2.027-2.267 4.493-4.067 7.4-5.4 2.907-1.333 6.173-2 9.8-2 3.52 0 6.64.573 9.36 1.72 2.72 1.147 5.067 2.76 7.04 4.84h0l4-4c-2.4-2.4-5.28-4.267-8.64-5.6-3.36-1.333-7.307-2-11.84-2-4.213 0-8.12.747-11.72 2.24-3.6 1.493-6.72 3.56-9.36 6.2-2.64 2.64-4.707 5.773-6.2 9.4-1.493 3.627-2.24 7.6-2.24 11.92s.733 8.293 2.2 11.92c1.467 3.627 3.507 6.76 6.12 9.4 2.613 2.64 5.733 4.707 9.36 6.2 3.627 1.493 7.573 2.24 11.84 2.24zm50.72-.48c2.933 0 5.627-.493 8.08-1.48 2.453-.987 4.56-2.36 6.32-4.12 1.76-1.76 3.133-3.84 4.12-6.24.987-2.4 1.48-5.013 1.48-7.84s-.493-5.44-1.48-7.84c-.987-2.4-2.36-4.48-4.12-6.24-1.76-1.76-3.867-3.133-6.32-4.12-2.453-.987-5.147-1.48-8.08-1.48-2.88 0-5.547.493-8 1.48-2.453.987-4.56 2.36-6.32 4.12-1.76 1.76-3.133 3.84-4.12 6.24-.987 2.4-1.48 5.013-1.48 7.84s.493 5.44 1.48 7.84c.987 2.4 2.36 4.48 4.12 6.24 1.76 1.76 3.867 3.133 6.32 4.12 2.453.987 5.12 1.48 8 1.48zm0-4.64c-2.187 0-4.147-.387-5.88-1.16-1.733-.773-3.213-1.84-4.44-3.2-1.227-1.36-2.173-2.96-2.84-4.8-.667-1.84-1-3.8-1-5.88s.333-4.04 1-5.88c.667-1.84 1.613-3.44 2.84-4.8 1.227-1.36 2.707-2.44 4.44-3.24 1.733-.8 3.693-1.2 5.88-1.2s4.16.4 5.92 1.2c1.76.8 3.253 1.88 4.48 3.24 1.227 1.36 2.173 2.96 2.84 4.8.667 1.84 1 3.8 1 5.88s-.333 4.04-1 5.88c-.667 1.84-1.613 3.44-2.84 4.8-1.227 1.36-2.72 2.427-4.48 3.2-1.76.773-3.733 1.16-5.92 1.16z"/>
        <g>
            <g transform="translate(152 32) translate(.217 27.974)"/>
            <path fill="#D6DFE6" d="M28.729 12.51c-.28-.293-.44-.687-.433-1.095.001-.124-.031-.223-.102-.284-.237-.207-.817.09-1.295.661-.477.572-.672 1.204-.434 1.41.063.055.15.075.253.063.38-.043.762.047 1.075.271l3.172 2.277.426-.51-2.662-2.793z" transform="translate(152 32)"/>
            <path fill="#D6DFE6" d="M29.105 14.478l1.83 1.314c.087-.277.162-.52.225-.732l-1.898-1.991c.01.422-.022.92-.157 1.41M34.587 8.224c-.147-.38-.145-.806.015-1.18.048-.114.056-.218.014-.302-.14-.285-.787-.24-1.445.098-.657.339-1.076.844-.935 1.129.037.075.11.128.21.158.366.11.685.344.888.674l2.063 3.353.586-.302-1.396-3.628zM41.836 6.66c.014-.408.183-.797.476-1.075.089-.084.136-.177.131-.271-.017-.318-.628-.542-1.363-.5-.735.043-1.317.336-1.299.654.005.084.051.162.13.23.293.25.494.595.55.98l.58 3.916.656-.038.139-3.895z" transform="translate(152 32)"/>
            <path fill="#D6DFE6" d="M41.041 10.594l.656-.038.104-2.916c-.34.238-.716.475-1.098.668l.338 2.286zM48.208 9.838c.165-.372.464-.669.839-.813.113-.044.191-.11.221-.2.101-.302-.381-.744-1.078-.987-.697-.244-1.343-.197-1.444.105-.027.08-.013.17.035.263.18.345.238.741.148 1.12l-.91 3.85.622.216 1.567-3.554zM54.461 11.713c.288-.284.673-.447 1.073-.44.121.002.218-.031.279-.103.203-.242-.087-.835-.646-1.323-.56-.49-1.178-.689-1.38-.447-.054.065-.074.153-.062.259.041.387-.048.778-.268 1.096l-2.236 3.236.5.435 2.74-2.713z" transform="translate(152 32)"/>
            <path fill="#D6DFE6" d="M53.044 11.353l-1.823 2.638.5.435 1.967-1.948c-.332-.369-.53-.757-.644-1.125M59.38 17.172c.373-.148.79-.144 1.156.021.11.05.212.058.295.016.28-.142.24-.803-.09-1.476-.328-.672-.821-1.102-1.1-.96-.074.038-.126.112-.156.213-.11.374-.34.698-.665.904l-3.294 2.09.294.6 3.56-1.408zM59.667 24.622c.4.008.785.172 1.063.466.084.089.175.136.268.129.31-.025.518-.652.462-1.401-.055-.75-.353-1.338-.664-1.314-.083.006-.158.055-.223.138-.24.303-.574.515-.95.58l-3.823.666.05.669 3.817.067z" transform="translate(152 32)"/>
            <path fill="#D6DFE6" d="M56.185 23.82l.132.743 2.42.043c.056-.43.193-.88.353-1.293l-2.905.506zM57.626 31.324c.37.159.667.457.818.836.045.114.113.192.201.22.298.097.719-.407.94-1.124.221-.717.159-1.376-.139-1.472-.079-.025-.167-.008-.257.043-.333.191-.72.26-1.093.179l-3.792-.832-.197.64 3.52 1.51zM55.62 38.302c.281.29.444.682.442 1.09-.001.124.032.223.103.284.24.205.817-.096 1.29-.673.473-.576.662-1.209.423-1.414-.063-.054-.15-.073-.253-.06-.38.046-.763-.04-1.077-.262l-3.192-2.25-.421.514 2.685 2.77zM49.277 41.025c.15.379.152.804-.005 1.18-.047.114-.054.218-.011.302.143.284.79.233 1.444-.112.654-.345 1.068-.854.925-1.137-.038-.075-.112-.127-.211-.156-.368-.107-.689-.338-.895-.666l-2.093-3.333-.583.308 1.429 3.614z" transform="translate(152 32)"/>
            <path fill="#D6DFE6" d="M49.755 41.896c.122-.72.355-1.27.625-1.69l-1.628-2.591-.615.526 1.14 2.884c.15.379.152.804-.005 1.18-.047.114-.054.218-.011.302.043.085.13.14.25.166.1-.17.183-.42.244-.777M43.067 44.704c-.007.41-.168.802-.457 1.085-.087.086-.133.18-.126.274.023.317.638.53 1.372.473.734-.056 1.31-.36 1.287-.677-.006-.085-.054-.162-.135-.228-.297-.245-.503-.586-.567-.97l-.65-3.904-.655.05-.069 3.897zM36.718 41.141c-.152.378-.442.684-.812.841-.112.048-.188.118-.215.208-.09.305.406.73 1.11.95.704.22 1.349.152 1.44-.153.024-.081.007-.17-.044-.262-.19-.339-.261-.733-.184-1.115l.785-3.877-.628-.197-1.452 3.605zM30.188 38.481c-.292.28-.68.436-1.08.422-.122-.004-.219.027-.28.098-.207.239.072.836.623 1.335.552.498 1.166.708 1.373.47.055-.064.076-.152.066-.257-.035-.389.06-.778.286-1.093l2.289-3.196-.492-.444-2.785 2.665zM25.093 33.084c-.375.142-.792.132-1.156-.04-.11-.051-.212-.06-.295-.02-.282.138-.251.8.068 1.477.319.678.805 1.115 1.087.977.074-.036.127-.11.158-.21.115-.373.35-.693.678-.894l3.324-2.04-.284-.604-3.58 1.354z" transform="translate(152 32)"/>
            <path fill="#000" d="M28.673 31.73l-1.938.733c.292.174.57.416.78.756l1.442-.885-.284-.604z" transform="translate(152 32)"/>
            <path fill="#D6DFE6" d="M24.968 25.839c-.4-.02-.78-.198-1.048-.501-.081-.092-.17-.142-.263-.137-.312.013-.54.633-.508 1.384.032.751.31 1.35.623 1.335.083-.003.16-.05.227-.13.25-.295.59-.495.968-.549l3.842-.538-.029-.67-3.812-.194zM24.804 18.934c-.369-.16-.665-.46-.814-.839-.045-.115-.112-.193-.2-.222-.298-.097-.72.405-.945 1.12-.225.717-.165 1.376.132 1.473.079.026.167.01.257-.042.334-.19.721-.257 1.094-.173l3.788.85.2-.64-3.512-1.527z" transform="translate(152 32)"/>
            <path fill="#FF7764" d="M66.317 25.618c-.134-.017-.27.024-.402.113-.807.542-1.746.845-2.711.817l-3.544-.104c-.905-.026-1.64-.763-1.675-1.687-.012-.33-.034-.657-.066-.982-.09-.916.53-1.747 1.419-1.907l1.068-.192c.955-.171 1.948-.05 2.812.398.135.07.268.093.39.058.537-.15.69-1.317.345-2.608-.347-1.29-1.062-2.216-1.598-2.066-.11.031-.204.105-.28.213-.524.742-1.228 1.331-2.066 1.654l-1.192.459c-.855.329-1.811-.081-2.185-.933-.19-.43-.397-.85-.622-1.261-.446-.816-.199-1.845.572-2.35l2.815-1.843c.871-.571 1.903-.806 2.935-.727.171.013.32-.023.433-.114.495-.395.156-1.683-.757-2.876-.914-1.193-2.056-1.84-2.552-1.444-.107.085-.175.212-.206.37-.195.966-.65 1.858-1.352 2.535l-2.577 2.486c-.66.635-1.69.643-2.355.014-.235-.223-.478-.438-.727-.646-.697-.583-.833-1.618-.316-2.371l.623-.908c.557-.81 1.343-1.442 2.265-1.749.144-.048.253-.128.316-.24.275-.494-.425-1.43-1.563-2.093-1.14-.663-2.285-.8-2.56-.308-.057.101-.073.221-.051.353.143.903.053 1.828-.316 2.661l-.524 1.183c-.378.852-1.34 1.25-2.195.918-.428-.167-.866-.315-1.312-.443-.88-.254-1.416-1.16-1.22-2.073l.713-3.335c.22-1.033.787-1.943 1.572-2.633.13-.115.21-.247.227-.393C47.974.927 46.843.261 45.37.077c-1.472-.184-2.728.183-2.804.82-.016.138.023.277.11.412.532.823.828 1.782.8 2.768l-.1 3.617c-.026.925-.748 1.675-1.653 1.71-.323.013-.644.035-.962.068-.897.091-1.711-.542-1.868-1.449l-.188-1.09c-.168-.975-.05-1.989.39-2.871.069-.138.09-.273.057-.399-.147-.547-1.29-.704-2.555-.351-1.264.353-2.17 1.084-2.023 1.63.03.113.102.209.209.287.726.535 1.303 1.254 1.62 2.11l.449 1.216c.322.873-.08 1.85-.914 2.231-.421.194-.833.405-1.235.635-.8.456-1.807.203-2.301-.583l-1.806-2.875c-.56-.89-.789-1.943-.712-2.997.013-.174-.023-.325-.112-.441-.387-.506-1.648-.16-2.817.773-1.168.932-1.802 2.099-1.414 2.605.083.109.207.178.362.21.947.2 1.82.663 2.483 1.38l2.435 2.632c.623.673.63 1.724.014 2.404-.218.24-.43.488-.633.742-.57.712-1.584.85-2.322.322l-.89-.636c-.793-.568-1.412-1.37-1.712-2.311-.047-.148-.125-.259-.236-.323-.483-.281-1.4.433-2.05 1.596-.649 1.162-.784 2.333-.301 2.614.099.057.216.073.346.052.884-.147 1.79-.055 2.606.322l1.159.535c.834.385 1.224 1.367.898 2.24-.162.438-.307.884-.433 1.34-.249.899-1.137 1.446-2.03 1.247l-3.267-.729c-1.012-.225-1.903-.804-2.58-1.605-.111-.133-.24-.214-.384-.232-.624-.078-1.276 1.078-1.456 2.58-.18 1.504.18 2.786.803 2.864.166.02.334-.045.494-.182.59-.503 1.332-.785 2.101-.763l4.062.118c.906.027 1.64.764 1.675 1.688.012.33.035.657.066.982.09.916-.53 1.747-1.418 1.907l-1.068.192c-.955.171-1.948.05-2.813-.398-.135-.07-.267-.093-.39-.058-.536.15-.69 1.317-.344 2.608.346 1.29 1.061 2.216 1.597 2.066.11-.031.204-.105.281-.213.524-.742 1.228-1.331 2.066-1.654l1.192-.459c.855-.33 1.81.081 2.185.933.19.43.397.85.621 1.261.447.816.2 1.845-.57 2.35l-3.303 2.162c-.679.445-1.504.609-2.292.432-.238-.053-.442-.028-.59.09-.495.395-.156 1.683.758 2.876.914 1.193 2.056 1.84 2.551 1.444.107-.085.175-.212.207-.37.195-.966.649-1.858 1.351-2.535l2.578-2.486c.66-.635 1.69-.643 2.355-.014.235.223.478.438.727.646.697.583.832 1.618.315 2.371l-.623.908c-.556.81-1.342 1.442-2.264 1.749-.144.048-.253.128-.316.24-.276.494.424 1.43 1.563 2.093s2.285.8 2.56.308c.057-.101.072-.221.051-.354-.143-.902-.054-1.827.316-2.66l.524-1.184c.377-.851 1.339-1.25 2.195-.917.428.166.865.314 1.312.443.88.254 1.416 1.16 1.22 2.073l-.713 3.335c-.22 1.032-.788 1.943-1.572 2.633-.13.114-.21.246-.227.393-.077.637 1.055 1.303 2.527 1.487 1.473.184 2.728-.183 2.805-.82.02-.17-.045-.341-.178-.505-.493-.603-.77-1.36-.748-2.145l.116-4.147c.026-.925.748-1.675 1.653-1.71.323-.013.643-.035.961-.068.898-.092 1.712.541 1.868 1.448l.188 1.091c.168.975.05 1.989-.39 2.871-.068.138-.09.273-.056.399.146.547 1.29.704 2.554.35 1.265-.353 2.17-1.083 2.024-1.63-.03-.112-.102-.208-.209-.286-.726-.535-1.304-1.254-1.62-2.11l-.449-1.216c-.322-.874.08-1.85.913-2.232.422-.193.834-.404 1.236-.634.799-.456 1.807-.203 2.3.583l2.12 3.372c.435.693.595 1.535.422 2.34-.052.243-.027.451.088.601.388.506 1.649.16 2.818-.773 1.168-.933 1.801-2.099 1.414-2.605-.083-.109-.208-.178-.363-.21-.946-.2-1.82-.663-2.483-1.38L53.85 38.64c-.623-.673-.63-1.725-.014-2.404.218-.24.429-.488.633-.742.57-.712 1.584-.85 2.322-.323l.889.637c.794.568 1.413 1.37 1.713 2.311.047.148.125.259.236.323.483.281 1.4-.433 2.05-1.596.649-1.163.784-2.333.3-2.614-.127-.074-.286-.079-.462-.023-.65.204-1.349.176-1.968-.11l-1.68-.776c-.835-.385-1.225-1.367-.899-2.24.163-.438.308-.885.434-1.34.248-.899 1.137-1.446 2.03-1.247l3.267.728c1.011.226 1.903.805 2.579 1.606.112.132.241.214.384.232.625.078 1.277-1.078 1.457-2.58.18-1.504-.18-2.786-.804-2.864" transform="translate(152 32)"/>
            <path fill="#CD4431" d="M46.867 1.3c-.034.286-1.521.806-1.855.764-.296-.037-1.417-.882-1.383-1.169.034-.287.787-.428 1.681-.317.894.112 1.591.435 1.557.722" transform="translate(152 32)"/>
            <path fill="#D6DFE6" d="M46.867 1.3c.034-.287-.663-.61-1.557-.722-.894-.111-1.647.03-1.681.317-.02.165.342.513.709.787.394-.21 1.015-.335 1.991-.215.115.014.231.027.348.037.111-.073.183-.144.19-.204" transform="translate(152 32)"/>
            <path fill="#CD4431" d="M62.219 11.625c-.223.178-1.634-.528-1.841-.799-.184-.24-.391-1.647-.168-1.825.223-.178.853.265 1.408.99.555.725.824 1.456.601 1.634" transform="translate(152 32)"/>
            <path fill="#D6DFE6" d="M60.21 9.001c-.12.096-.115.547-.057.98.662.193 1.424.565 1.881 1.281.087.136.169.223.246.27.09-.27-.177-.908-.662-1.541-.555-.725-1.185-1.168-1.408-.99" transform="translate(152 32)"/>
            <path fill="#CD4431" d="M65.923 30.009c-.28-.035-.79-1.553-.748-1.894.036-.302.864-1.447 1.145-1.412.28.035.42.804.31 1.717-.11.913-.426 1.624-.707 1.589" transform="translate(152 32)"/>
            <path fill="#D6DFE6" d="M65.578 27.386c.514.296.963.711 1.019 1.269.012-.077.023-.155.033-.235.11-.913-.03-1.682-.31-1.717-.155-.02-.478.323-.742.683" transform="translate(152 32)"/>
            <path fill="#CD4431" d="M55.81 45.683c-.174-.228.518-1.668.783-1.88.235-.187 1.613-.399 1.787-.171.174.227-.26.87-.97 1.437-.709.567-1.425.841-1.6.614" transform="translate(152 32)"/>
            <path fill="#D6DFE6" d="M56.593 43.803c-.109.087-.289.38-.451.71.326 0 .735.051 1.246.18.13.033.253.057.37.072.496-.476.766-.946.622-1.133-.174-.228-1.552-.016-1.787.171" transform="translate(152 32)"/>
            <path fill="#CD4431" d="M37.804 49.465c.034-.287 1.521-.806 1.855-.764.296.037 1.417.882 1.383 1.169-.035.287-.787.428-1.682.317-.894-.112-1.59-.435-1.556-.722M22.452 39.14c.223-.178 1.634.528 1.84.799.185.24.392 1.647.169 1.825-.223.178-.853-.266-1.408-.99-.555-.725-.824-1.456-.601-1.634M18.747 20.756c.281.035.79 1.553.749 1.894-.036.302-.865 1.447-1.145 1.412-.281-.035-.42-.804-.31-1.717.11-.913.425-1.624.706-1.59" transform="translate(152 32)"/>
            <path fill="#D6DFE6" d="M19.34 21.872c-.165-.521-.421-1.095-.593-1.116-.28-.035-.597.676-.706 1.59-.017.137-.028.272-.033.401.346-.393.791-.743 1.331-.875" transform="translate(152 32)"/>
            <path fill="#CD4431" d="M28.86 5.082c.175.227-.517 1.668-.782 1.88-.235.187-1.613.399-1.788.171-.174-.227.26-.87.97-1.437.71-.567 1.426-.842 1.6-.614" transform="translate(152 32)"/>
            <path fill="#D6DFE6" d="M27.26 5.696c-.618.493-1.027 1.045-1.007 1.33.526-.551 1.308-1.19 2.221-1.362.126-.024.238-.057.339-.098.072-.229.101-.414.047-.484-.174-.228-.89.047-1.6.614" transform="translate(152 32)"/>
            <path fill="#CD4431" d="M38.222 3.8c.066.246-.979 1.18-1.265 1.26-.255.07-1.449-.237-1.515-.483-.066-.246.503-.62 1.27-.834.768-.215 1.444-.19 1.51.057M54.375 7.152c-.124.221-1.51.127-1.767-.023-.23-.134-.861-1.213-.737-1.435.124-.222.784-.075 1.476.327.691.403 1.152.909 1.028 1.13" transform="translate(152 32)"/>
            <path fill="#D6DFE6" d="M53.347 6.022c-.692-.403-1.352-.55-1.476-.328-.03.052-.016.153.023.277.52.156 1.662.566 2.215 1.288.138-.02.237-.055.266-.107.124-.222-.337-.728-1.028-1.13" transform="translate(152 32)"/>
            <path fill="#CD4431" d="M63.475 21.183c-.241.068-1.155-1-1.234-1.292-.07-.26.232-1.479.473-1.546.24-.068.607.513.817 1.297.21.784.185 1.474-.056 1.541M60.192 37.674c-.217-.126-.125-1.54.022-1.804.13-.234 1.188-.879 1.405-.752.217.126.074.801-.32 1.507-.395.706-.89 1.176-1.107 1.05M46.448 46.965c-.066-.246.98-1.18 1.266-1.26.254-.07 1.449.237 1.515.483.066.246-.503.62-1.271.834-.768.215-1.444.19-1.51-.057" transform="translate(152 32)"/>
            <path fill="#D6DFE6" d="M47.714 45.705c-.236.067-.987.712-1.207 1.075.462-.274 1.062-.493 1.733-.406.427.056.743.015.979-.073.015-.04.02-.077.01-.113-.066-.246-1.26-.554-1.515-.483M30.296 43.613c.124-.221 1.509-.127 1.767.023.23.133.86 1.213.737 1.435-.124.221-.785.075-1.476-.328-.692-.402-1.152-.908-1.028-1.13" transform="translate(152 32)"/>
            <path fill="#CD4431" d="M21.196 29.582c.24-.068 1.155 1 1.234 1.292.07.26-.232 1.479-.473 1.546-.241.068-.607-.513-.817-1.297-.21-.784-.185-1.474.056-1.541M24.479 13.09c.217.127.125 1.541-.022 1.805-.131.234-1.189.878-1.406.752-.217-.126-.073-.801.321-1.507.394-.706.89-1.176 1.107-1.05M48.325 12.408c-.101.358-2.1.709-2.518.586-.37-.11-1.629-1.422-1.527-1.78.101-.359 1.089-.382 2.206-.052s1.94.888 1.84 1.246" transform="translate(152 32)"/>
            <path fill="#D6DFE6" d="M55.443 20.628c-.32.18-1.977-1.016-2.186-1.404-.186-.344-.167-2.182.153-2.362.32-.18 1.034.517 1.595 1.557.562 1.04.758 2.029.438 2.209" transform="translate(152 32)"/>
            <path fill="#B31221" d="M54.783 31.579c-.35-.104-.694-2.145-.574-2.571.107-.378 1.393-1.663 1.744-1.56.35.104.373 1.113.05 2.253-.323 1.14-.87 1.981-1.22 1.878M46.732 38.846c-.176-.327.995-2.018 1.375-2.232.337-.19 2.137-.17 2.313.156.176.326-.506 1.056-1.525 1.629-1.018.573-1.987.773-2.163.447M36.006 38.172c.101-.358 2.1-.709 2.518-.586.37.11 1.629 1.422 1.528 1.78-.102.359-1.09.382-2.207.052-1.117-.33-1.94-.888-1.84-1.246M28.888 29.952c.32-.18 1.977 1.016 2.186 1.404.186.344.167 2.181-.153 2.362-.32.18-1.034-.518-1.595-1.557-.562-1.04-.758-2.029-.438-2.209" transform="translate(152 32)"/>
            <path fill="#CD4431" d="M29.548 19.001c.35.104.694 2.145.574 2.571-.107.378-1.393 1.663-1.744 1.56-.35-.104-.373-1.113-.05-2.253.323-1.14.87-1.981 1.22-1.878M37.6 11.734c.176.327-.996 2.018-1.376 2.232-.337.19-2.137.17-2.313-.156-.176-.326.507-1.056 1.525-1.629 1.018-.573 1.987-.773 2.163-.447M35.383 16.222c.377.385-.033 2.673-.348 2.995-.28.286-2.332.516-2.71.132-.377-.385.002-1.397.846-2.26.844-.864 1.834-1.252 2.212-.867" transform="translate(152 32)"/>
            <path fill="#B31221" d="M30.65 23.949c.533 0 1.828 1.913 1.828 2.369 0 .404-1.291 2.048-1.824 2.049-.534 0-.967-.988-.968-2.208-.001-1.22.43-2.21.964-2.21M32.655 32.83c.377-.386 2.617.033 2.933.354.28.286.506 2.381.13 2.767-.378.385-1.369-.001-2.214-.863-.846-.862-1.226-1.873-.85-2.258M41.34 37.797c-.051-.542 1.69-2.042 2.134-2.087.394-.039 2.122 1.115 2.173 1.657.052.542-.87 1.077-2.059 1.196s-2.195-.224-2.247-.766M50.179 34.557c-.426-.328-.333-2.651-.065-3.015.238-.323 2.239-.844 2.665-.516.426.327.19 1.382-.528 2.358-.718.975-1.646 1.5-2.072 1.173" transform="translate(152 32)"/>
            <path fill="#CD4431" d="M53.706 26.291c-.528.073-2.06-1.648-2.12-2.1-.053-.4 1.014-2.205 1.542-2.278.529-.073 1.087.848 1.246 2.057.16 1.21-.14 2.248-.668 2.321M50.577 18.048c-.334.425-2.606.26-2.954-.025-.31-.253-.758-2.31-.425-2.735.334-.425 1.36-.152 2.293.61.933.763 1.419 1.725 1.086 2.15M43.077 14.23c.03.543-1.77 1.969-2.216 1.994-.395.023-2.075-1.203-2.105-1.747-.03-.544.914-1.04 2.107-1.108 1.193-.068 2.184.317 2.214.86M39.281 19.292c-.592.307-1.436-.027-1.626-.408-.19-.382.135-.94.727-1.248.592-.308 1.227-.248 1.417.134.19.382.074 1.214-.518 1.522M35.93 23.254c-.23.635-1.073.973-1.466.824-.394-.149-.525-.785-.293-1.42.23-.637.737-1.031 1.13-.882.394.15.86.842.63 1.478" transform="translate(152 32)"/>
            <path fill="#B31221" d="M36.107 28.744c.278.616-.082 1.464-.463 1.643-.38.18-.915-.175-1.193-.79-.278-.617-.194-1.261.187-1.44.38-.18 1.191-.029 1.469.587M39.969 32.541c.622.238.952 1.098.805 1.5-.147.4-.77.534-1.393.296-.622-.237-1.007-.755-.86-1.156.146-.4.826-.877 1.448-.64M45.934 31.997c.568-.351 1.434-.081 1.65.285.218.366-.066.948-.635 1.3-.568.35-1.205.338-1.422-.029-.217-.366-.161-1.205.407-1.556M49.165 27.662c.159-.658.958-1.092 1.366-.99.407.104.608.72.449 1.379-.16.658-.619 1.109-1.026 1.006-.407-.103-.949-.737-.79-1.395" transform="translate(152 32)"/>
            <path fill="#CD4431" d="M48.19 22.067c-.356-.572-.109-1.462.245-1.69.355-.23.93.049 1.286.622.355.572.356 1.223.002 1.452-.355.229-1.178.19-1.533-.384M43.749 18.955c-.648-.153-1.084-.962-.99-1.38.094-.417.695-.631 1.342-.479.648.152 1.096.614 1.002 1.031-.095.418-.707.98-1.354.828M45.256 20.54s-1.312-.149-2.009 1.308c-.696 1.457.565 2.662 2.337 2.147 1.771-.516 1.542-3.066-.328-3.455M38.884 21.57s-1.898 1.486-.85 2.77c1.048 1.285 2.66.515 3.064-.636.404-1.15-.304-3.17-2.214-2.133" transform="translate(152 32)"/>
            <path fill="#B31221" d="M44.186 26.389s-1.211.364-1.034 2.287c.178 1.923 2.687 1.77 3.347.612.66-1.158-.006-3.81-2.313-2.9M38.612 27.643s-1.024 1.48-.123 2.252c.9.772 3.038.368 2.638-1.053-.4-1.42-1.813-1.983-2.515-1.2" transform="translate(152 32)"/>
            <path fill="#D6DFE6" d="M38.884 21.57s-.694.544-1.01 1.257c.044-.003.09-.008.138-.014 1.107-.148 2.364.632 2.999 1.097.033-.067.062-.135.087-.206.404-1.15-.304-3.17-2.214-2.133M50.667 17.55c-.084-.478-.519-1.115-1.176-1.652-.933-.762-1.96-1.035-2.293-.61-.168.214-.137.845-.025 1.449 1.51-.288 2.891.43 3.494.813" transform="translate(152 32)"/>
            <path fill="#000" d="M44.186 26.389s-1.078.324-1.05 1.975c.629-.376 1.828-.892 3.526-.757-.241-.973-1.041-1.785-2.476-1.218" transform="translate(152 32)"/>
            <path fill="#D6DFE6" d="M32.238 25.7c-.4-.728-1.198-1.751-1.588-1.751-.483 0-.882.81-.953 1.869.47-.281 1.302-.543 2.54-.117M35.533 17.002c.007-.365-.035-.662-.15-.78-.378-.385-1.368.003-2.212.867-.733.749-1.114 1.61-.956 2.076.277-.627 1.163-2.123 3.318-2.163M46.486 11.162c-1.117-.33-2.105-.307-2.206.051-.027.095.041.257.163.445.693-.104 2.05-.103 3.43 1.038.248-.089.424-.188.452-.288.102-.358-.722-.916-1.839-1.246" transform="translate(152 32)"/>
            <path fill="#000" d="M56.003 29.701c.323-1.14.3-2.15-.05-2.253-.173-.05-.575.237-.95.587.197.5.416 1.447.354 3.14.236-.34.473-.863.646-1.474M35.81 33.834c-.059-.316-.138-.564-.222-.65-.316-.321-2.556-.74-2.933-.354-.308.314-.11 1.046.432 1.773.355-.41 1.229-1.149 2.723-.77M45.132 36.673c-.557-.494-1.398-.989-1.658-.963-.444.045-2.185 1.545-2.133 2.087.011.12.07.23.168.329.095-.32.395-.825 1.327-1.077 1.077-.291 1.702-.54 2.296-.376" transform="translate(152 32)"/>
            <path fill="#D6DFE6" d="M48.435 20.376c-.038.025-.074.058-.11.096.428.215 1.178.724 1.35 1.705.017.101.036.19.055.269.347-.234.344-.879-.01-1.447-.355-.573-.93-.852-1.285-.623" transform="translate(152 32)"/>
            <path fill="#000" d="M45.934 31.997c-.568.351-.624 1.19-.407 1.556.076.128.201.212.357.253-.068-.247-.206-1.013.587-1.324.375-.147.711-.267.935-.388-.345-.256-1.008-.384-1.472-.097M34.638 28.157c-.278.13-.398.509-.334.943.101-.336.332-.6.851-.336.576.295.864.661 1.02.767.052-.261.042-.542-.068-.787-.278-.616-1.088-.766-1.47-.587" transform="translate(152 32)"/>
            <path fill="#D6DFE6" d="M32.063 43.636c-.258-.15-1.643-.244-1.767-.023-.071.127.05.347.295.587.408-.205 1.024-.386 1.372.14.17.258.35.567.522.832.158.01.27-.022.315-.101.124-.222-.508-1.302-.737-1.435M57.341 25.368c-.197-.873.04-1.78.275-2.644l.772-2.837c-.082.01-.165.012-.247.008-.902 1.247-.78 3.207-1.863 4.358-.872.927-2.271 1.055-3.529.984-4.34-.242-8.614-2.127-12.904-1.42-1.859.306-3.61 1.088-5.44 1.534-1.832.446-3.882.517-5.477-.506-.477-.306-.893-.698-1.304-1.089-.184-.174-.716-1.136-1.176-1.673-.205.118-.434.193-.674.218.118.708.662 1.837.732 2.127.142.592.202 1.202.232 1.809.069 1.37.047 2.811.687 4.017 1.032 1.944 3.397 2.63 5.53 3.01 6.981 1.241 14.185 1.166 21.14-.22.967-.193 1.951-.421 2.814-.891-.085-.344-.071-.716.061-1.07.163-.438.308-.885.434-1.34.192-.696.768-1.18 1.432-1.272-.306-1.097-1.24-1.976-1.495-3.103" transform="translate(152 32)"/>
            <path fill="#FF7764" d="M32.831 4.738c0 .47-.374.853-.835.853-.462 0-.836-.382-.836-.853 0-.472.374-.854.836-.854.461 0 .835.382.835.854M20.613 18.09c0 .359-.285.65-.637.65-.352 0-.637-.291-.637-.65 0-.36.285-.65.637-.65.352 0 .637.29.637.65M65.06 24.967c0 .47-.372.851-.833.851-.46 0-.833-.381-.833-.851s.373-.851.833-.851c.46 0 .834.38.834.85M61.87 33.127c0 .188-.149.34-.332.34-.184 0-.333-.152-.333-.34 0-.187.149-.34.333-.34.183 0 .332.153.332.34M20.613 36.922c0 .784-.622 1.42-1.39 1.42-.767 0-1.39-.636-1.39-1.42 0-.783.623-1.418 1.39-1.418.768 0 1.39.635 1.39 1.418M21.134 25.648c0 .147-.116.266-.26.266-.144 0-.26-.119-.26-.266 0-.146.116-.266.26-.266.144 0 .26.12.26.266M59.717 6.318c0 .401-.318.726-.712.726-.393 0-.711-.325-.711-.726 0-.402.318-.727.711-.727.394 0 .712.325.712.727M52.81 2.98c0 .1-.08.182-.178.182-.098 0-.177-.081-.177-.181 0-.1.08-.181.177-.181.098 0 .177.08.177.18M48.334 5.211c0 .261-.208.473-.464.473s-.464-.212-.464-.473c0-.262.208-.473.464-.473s.464.211.464.473M40.441 1.516c0 .223-.177.404-.396.404-.219 0-.396-.18-.396-.404 0-.224.177-.405.396-.405.219 0 .396.181.396.405" transform="translate(152 32)"/>
            <path fill="#B3B3B3" d="M25.461 24.395c-.188-.07-.544-.077-.544-.077s.655 7.197 1.204 9.148l.21-.15s-.874-7.535-.87-8.921" transform="translate(152 32)"/>
            <path fill="gray" d="M25.594 30.443c.17 1.27.354 2.408.527 3.023l.21-.15s-.203-1.752-.413-3.722c-.104.245-.218.535-.324.849" transform="translate(152 32)"/>
            <path fill="#E6E6E6" d="M25.14 22.247s.239.04.372.35c.134.31 1.727 3.963 1.727 3.963l.507-.25-1.768-3.901s-.352-.574-.838-.162" transform="translate(152 32)"/>
            <path fill="#B3B3B3" d="M27.24 26.56l.506-.25-.17-.377c-.25.046-.456.027-.618-.019l.281.646" transform="translate(152 32)"/>
            <path fill="gray" d="M25.461 24.395c-.188-.07-.544-.077-.544-.077s.012.138.036.382c.152-.023.325-.027.516 0-.005-.12-.008-.224-.008-.305" transform="translate(152 32)"/>
            <path fill="#B3B3B3" d="M58.978 21.974c.188-.07.544-.138.544-.138s-.838 9.679-1.387 11.63l-.21-.15s1.057-9.956 1.053-11.342" transform="translate(152 32)"/>
            <path fill="gray" d="M58.663 30.443c-.17 1.27-.355 2.408-.528 3.023l-.21-.15s.203-1.752.413-3.722c.104.245.218.535.325.849" transform="translate(152 32)"/>
            <path fill="#E6E6E6" d="M59.082 19.7s-.24.04-.373.35-1.692 6.51-1.692 6.51l-.507-.25 1.693-6.297c.043-.16.139-.3.277-.386.149-.092.359-.133.602.073" transform="translate(152 32)"/>
            <path fill="#B3B3B3" d="M57.017 26.56l.158-.627c-.157.011-.369-.01-.553-.04l-.112.417.507.25z" transform="translate(152 32)"/>
            <path fill="gray" d="M58.978 21.974c.19-.092.544-.138.544-.138s-.012.2-.036.443c-.152-.023-.325-.027-.516 0 .005-.12.008-.224.008-.305" transform="translate(152 32)"/>
            <path fill="#F2F2F2" d="M57.1 26.158c-1.742-.79-9.627-.556-11.63-1.796-2.004-1.24-3.135-1.216-3.135-1.216s-1.13-.023-3.133 1.216c-2.004 1.24-9.89 1.006-11.632 1.796-1.742.79-2.966 7.252.53 11.457 2.283 2.746 7.656 5.052 11.109 6.321 2.02.743 4.232.743 6.253 0 3.453-1.27 8.826-3.575 11.11-6.321 3.495-4.205 2.271-10.667.529-11.457" transform="translate(152 32)"/>
            <g transform="translate(152 32) translate(26 23)">
                <mask id="prefix__c" fill="#fff">
                    <use xlink:href="#prefix__b"/>
                </mask>
                <path fill="#E6E6E6" d="M29.923 7.7c-1.514-.032-6.924-.65-9.696-1.183-2.772-.535-4.282-.499-4.282-.499s-1.51-.036-4.281.499C8.892 7.05 3.48 7.668 1.968 7.7.454 7.733.018 8.888.018 8.888v.384s.436-1.156 1.95-1.188c1.513-.032 6.924-.65 9.696-1.184 2.771-.534 4.281-.498 4.281-.498s1.51-.036 4.282.498c2.772.534 8.182 1.152 9.696 1.184 1.513.032 1.949 1.188 1.949 1.188v-.384s-.436-1.155-1.95-1.188" mask="url(#prefix__c)"/>
                <mask id="prefix__e" fill="#fff">
                    <use xlink:href="#prefix__d"/>
                </mask>
                <path fill="#B3B3B3" d="M29.923 7.509c-1.514-.032-6.924-.65-9.696-1.184-2.772-.534-4.282-.499-4.282-.499s-1.51-.035-4.281.499c-2.772.534-8.183 1.152-9.696 1.184C.454 7.54.018 8.696.018 8.696v.384s.436-1.156 1.95-1.188c1.513-.032 6.924-.65 9.696-1.184 2.771-.534 4.281-.498 4.281-.498s1.51-.036 4.282.498c2.772.535 8.182 1.152 9.696 1.184 1.513.032 1.949 1.188 1.949 1.188v-.384s-.436-1.155-1.95-1.187" mask="url(#prefix__e)"/>
                <g>
                    <mask id="prefix__g" fill="#fff">
                        <use xlink:href="#prefix__f"/>
                    </mask>
                    <path fill="#E6E6E6" d="M28.97 12.3c-1.411-.032-6.453-.65-9.035-1.184-2.583-.534-3.99-.498-3.99-.498s-1.407-.036-3.99.498c-2.582.534-7.623 1.152-9.034 1.184-1.41.032-1.815 1.188-1.815 1.188v.383s.405-1.156 1.815-1.188c1.41-.032 6.452-.65 9.035-1.183 2.582-.535 3.99-.499 3.99-.499s1.406-.036 3.989.499c2.582.534 7.624 1.151 9.034 1.183 1.41.032 1.816 1.188 1.816 1.188v-.383s-.406-1.156-1.816-1.188" mask="url(#prefix__g)"/>
                </g>
                <g>
                    <mask id="prefix__i" fill="#fff">
                        <use xlink:href="#prefix__h"/>
                    </mask>
                    <path fill="#B3B3B3" d="M28.97 12.108c-1.411-.032-6.453-.65-9.035-1.184-2.583-.534-3.99-.498-3.99-.498s-1.407-.036-3.99.498c-2.582.535-7.623 1.152-9.034 1.184-1.41.032-1.815 1.188-1.815 1.188v.383s.405-1.155 1.815-1.187c1.41-.032 6.452-.65 9.035-1.184 2.582-.534 3.99-.499 3.99-.499s1.406-.035 3.989.499c2.582.534 7.624 1.152 9.034 1.184 1.41.032 1.816 1.187 1.816 1.187v-.383s-.406-1.156-1.816-1.188" mask="url(#prefix__i)"/>
                </g>
                <g>
                    <mask id="prefix__k" fill="#fff">
                        <use xlink:href="#prefix__j"/>
                    </mask>
                    <path fill="#E6E6E6" d="M25.115 16.618c-.993-.032-4.543-.65-6.361-1.184-1.818-.534-2.809-.498-2.809-.498s-.99-.036-2.809.498c-1.818.534-5.367 1.152-6.36 1.184-.993.032-1.279 1.188-1.279 1.188v.383s.286-1.156 1.279-1.188c.993-.031 4.542-.65 6.36-1.183 1.819-.535 2.81-.499 2.81-.499s.99-.036 2.808.499c1.818.534 5.368 1.152 6.36 1.183.994.032 1.28 1.188 1.28 1.188v-.383s-.286-1.156-1.28-1.188" mask="url(#prefix__k)"/>
                </g>
                <g>
                    <mask id="prefix__m" fill="#fff">
                        <use xlink:href="#prefix__l"/>
                    </mask>
                    <path fill="#B3B3B3" d="M25.115 16.426c-.993-.032-4.543-.65-6.361-1.184-1.818-.534-2.809-.498-2.809-.498s-.99-.036-2.809.498c-1.818.535-5.367 1.152-6.36 1.184-.993.032-1.279 1.188-1.279 1.188v.383s.286-1.155 1.279-1.187c.993-.032 4.542-.65 6.36-1.184 1.819-.534 2.81-.499 2.81-.499s.99-.035 2.808.499c1.818.534 5.368 1.152 6.36 1.184.994.032 1.28 1.187 1.28 1.187v-.383s-.286-1.156-1.28-1.188" mask="url(#prefix__m)"/>
                </g>
            </g>
            <g>
                <path fill="#4E73DF" d="M15.907 19.902c-1.01 0-2.005-.173-2.956-.516-2.22-.799-4.2-1.642-5.888-2.507-2.31-1.185-3.973-2.363-4.94-3.502-2.192-2.58-2.388-6.04-1.89-8.218.32-1.402.855-2.086 1.217-2.247.69-.306 2.69-.457 4.623-.603 2.824-.214 5.744-.435 6.945-1.162C14.846.039 15.893.027 15.903.027h.012c.007 0 1.054.012 2.882 1.12 1.2.727 4.12.948 6.945 1.162 1.934.146 3.933.297 4.623.603.361.16.897.845 1.217 2.247.498 2.178.302 5.637-1.89 8.218-.967 1.14-2.63 2.317-4.94 3.502-1.688.865-3.669 1.708-5.888 2.507-.951.343-1.946.516-2.957.516" transform="translate(152 32) translate(26 23)"/>
                <path fill="#91A8EA" d="M30.727 5.699c-.01-.725-.029-1.487-.399-2.11-.228-.385-.566-.677-.945-.922-.944-.154-2.308-.257-3.641-.358-2.824-.214-5.744-.435-6.945-1.162C18.12.737 17.55.477 17.1.312c.11.38.257.765.308 1.147.187 1.372.062 2.773-.19 4.129-.39 2.085-1.069 4.114-1.355 6.217-.1.725-.143 1.501.194 2.152.432.833 1.4 1.262 2.333 1.359 1.701.175 3.375-.55 4.8-1.494 1.427-.943 2.695-2.115 4.154-3.005 1.094-.668 2.358-1.24 2.958-2.372.439-.828.437-1.81.424-2.746zM12.951 19.386c.541.195 1.097.335 1.661.42-.035-.41-.345-.76-.7-.975-.375-.227-.805-.343-1.205-.522-1.975-.885-3.005-3.195-4.965-4.11-.953-.446-2.059-.524-2.964-1.059-.986-.581-1.598-1.617-2.168-2.61L.438 6.746c-.126-.218-.251-.438-.363-.663-.253 2.152.145 5.054 2.047 7.294.968 1.14 2.63 2.317 4.941 3.502 1.687.865 3.669 1.708 5.888 2.507" transform="translate(152 32) translate(26 23)"/>
            </g>
        </g>
    </g>
</svg>
